<?xml version="1.0" encoding="iso-8859-1"?>
<!-- Generator: Adobe Illustrator 19.0.0, SVG Export Plug-In . SVG Version: 6.00 Build 0)  -->
<svg version="1.1" id="Layer_1" xmlns="http://www.w3.org/2000/svg" xmlns:xlink="http://www.w3.org/1999/xlink" x="0px" y="0px"
	 viewBox="0 0 512 512" style="enable-background:new 0 0 512 512;" xml:space="preserve">
<g>
	<g>
		<path d="M501.816,41.51L442.102,1.701c-2.187-1.459-4.903-1.894-7.439-1.19c-2.535,0.703-4.637,2.474-5.761,4.852l-45.835,97
			H228.622C224,45.147,175.96,0,117.568,0C56.135,0,6.154,49.979,6.154,111.413s49.981,111.413,111.414,111.413
			c21.541,0,42.094-6.024,59.97-17.499l106.744,140.543v96.002l-82.765,53.482c-3.37,2.178-4.902,6.312-3.768,10.159
			c1.134,3.847,4.666,6.488,8.678,6.488H380.23c4.011,0,7.544-2.641,8.678-6.488c1.134-3.847-0.398-7.983-3.768-10.159
			l-82.765-53.482v-96.002l50.38-66.325c3.022-3.979,2.246-9.655-1.734-12.678c-3.979-3.023-9.655-2.246-12.678,1.732
			l-45.016,59.265L159.994,152.31h87.088c4.998,0,9.048-4.051,9.048-9.048s-4.05-9.048-9.048-9.048h-20.446
			c0.945-4.529,1.615-9.118,1.989-13.754h145.891l-6.499,13.754h-90.774c-4.998,0-9.048,4.051-9.048,9.048s4.05,9.048,9.048,9.048
			h96.457c0.014,0,0.029,0.002,0.043,0.002c0.011,0,0.022-0.002,0.034-0.002h52.888l-69.253,91.181
			c-3.022,3.979-2.246,9.655,1.734,12.678c3.98,3.021,9.655,2.246,12.678-1.734l104.471-137.551c2.08-2.737,2.427-6.416,0.9-9.495
			c-1.529-3.079-4.669-5.026-8.106-5.026h-66.007l37.704-79.791l50.993,33.996c4.157,2.772,9.776,1.648,12.547-2.509
			C507.097,49.901,505.974,44.283,501.816,41.51z M293.328,457.57l56.228,36.334H237.101L293.328,457.57z M208.071,134.214h-61.82
			l-10.446-13.754h74.64C209.996,125.112,209.206,129.706,208.071,134.214z M117.569,102.363c-3.437,0-6.577,1.947-8.106,5.026
			c-1.527,3.079-1.179,6.757,0.9,9.495l56.174,73.962c-14.67,9.099-31.424,13.883-48.97,13.883
			c-51.456,0-93.318-41.863-93.318-93.316c0-51.455,41.862-93.316,93.318-93.316c48.407,0,88.315,37.044,92.882,84.267H117.569z
			 M450.854,120.46l-10.446,13.754h-52.375l6.499-13.754H450.854z"/>
	</g>
</g>
<g>
	<g>
		<path d="M236.507,179.728c-1.948-2.951-5.632-4.502-9.106-3.881c-3.871,0.693-6.897,3.905-7.397,7.799
			c-0.493,3.85,1.676,7.705,5.196,9.318c3.361,1.539,7.374,0.869,10.049-1.682C238.403,188.278,238.888,183.349,236.507,179.728z"/>
	</g>
</g>
<g>
	<g>
		<path d="M296.225,234.017c-2.122-3.215-6.235-4.722-9.935-3.689c-3.648,1.018-6.322,4.259-6.612,8.043
			c-0.271,3.535,1.642,6.976,4.762,8.644c3.528,1.887,8.021,1.176,10.795-1.71C298.146,242.275,298.523,237.513,296.225,234.017z"/>
	</g>
</g>
<g>
	<g>
		<path d="M348.283,194.206c-4.438-6.488-14.84-4.534-16.396,3.257c-1.646,8.243,8.356,14.11,14.746,8.645
			C350.084,203.158,350.767,197.986,348.283,194.206z"/>
	</g>
</g>
<g>
</g>
<g>
</g>
<g>
</g>
<g>
</g>
<g>
</g>
<g>
</g>
<g>
</g>
<g>
</g>
<g>
</g>
<g>
</g>
<g>
</g>
<g>
</g>
<g>
</g>
<g>
</g>
<g>
</g>
</svg>
